<?xml version="1.0" encoding="iso-8859-1"?>
<!DOCTYPE svg PUBLIC "-//W3C//DTD SVG 1.1//EN" "http://www.w3.org/Graphics/SVG/1.1/DTD/svg11.dtd">
<svg version="1.1" id="Capa_1" xmlns="http://www.w3.org/2000/svg" xmlns:xlink="http://www.w3.org/1999/xlink" width="456.793px" height="456.793px" viewBox="0 0 456.793 456.793" xml:space="preserve">
    <g>
        <path fill="white" d="M448.947,218.474c-0.924-1.168-23.057-28.933-61-56.81c-50.707-37.253-105.879-56.944-159.551-56.944 c-53.673,0-108.845,19.691-159.551,56.944c-37.944,27.876-60.077,55.642-61,56.81L0,228.396l7.845,9.923 c0.923,1.168,23.056,28.934,61,56.811c50.707,37.252,105.878,56.943,159.551,56.943c53.672,0,108.844-19.691,159.551-56.943 c37.943-27.877,60.076-55.643,61-56.811l7.846-9.923L448.947,218.474z M368.273,269.874 c-31.354,22.9-81.072,50.199-139.877,50.199s-108.524-27.299-139.877-50.199c-21.516-15.715-37.641-31.609-46.834-41.478 c9.197-9.872,25.32-25.764,46.833-41.478c31.354-22.901,81.072-50.2,139.877-50.2c58.804,0,108.525,27.299,139.876,50.2 c21.516,15.715,37.641,31.609,46.834,41.477C405.91,238.268,389.785,254.161,368.273,269.874z"/>
        <path fill="white" d="M228.396,160.728c-16.416,0-31.465,5.849-43.183,15.572c9.273,2.715,16.049,11.279,16.049,21.431 c0,12.334-9.999,22.333-22.333,22.333c-6.482,0-12.316-2.764-16.396-7.174c-1.168,4.982-1.807,10.169-1.807,15.507 c0,37.373,30.297,67.669,67.67,67.669c37.372,0,67.668-30.296,67.668-67.669S265.77,160.728,228.396,160.728z"/>
    </g>
</svg>
