<svg height="40" viewBox="0 0 120 40" width="120" xmlns="http://www.w3.org/2000/svg"><rect fill="#221f1f" height="39" rx="3.5" stroke="#4d4b4b" width="119" x=".5" y=".5"/><g fill="#fff"><path d="m26.8683 19.7644c-.0265-3.0324 2.4156-4.5074 2.5275-4.5764-1.3833-2.0729-3.5273-2.3561-4.28-2.3781-1.8003-.1944-3.5467 1.107-4.4641 1.107-.9358 0-2.3486-1.0882-3.8702-1.0568-1.959.0313-3.7918 1.1969-4.7967 3.0063-2.07393 3.6911-.5269 9.1142 1.4606 12.0976.9937 1.4613 2.1563 3.092 3.6758 3.0345 1.4881-.0627 2.0434-.9742 3.8386-.9742 1.779 0 2.3008.9742 3.8509.9376 1.5968-.0261 2.6017-1.4676 3.5609-2.9415 1.1483-1.6746 1.6101-3.3241 1.6284-3.4088-.0387-.0115-3.1012-1.2136-3.1317-4.8472z"/><path d="m23.939 10.8468c.8005-1.02861 1.3477-2.42725 1.1952-3.8468-1.1575.05227-2.6059.82267-3.4399 1.82931-.7375.88644-1.3965 2.33839-1.2267 3.70459 1.3009.0993 2.6364-.6742 3.4714-1.6871z"/><path d="m50.281 30.1569h-2.044l-1.12-3.518h-3.892l-1.067 3.518h-1.99l3.856-11.977h2.381zm-3.501-4.994-1.013-3.128c-.107-.319-.308-1.072-.604-2.256h-.036c-.118.509-.308 1.262-.569 2.256l-.994 3.128z"/><path d="m60.1959 25.7319c0 1.469-.397 2.63-1.191 3.482-.711.759-1.594 1.138-2.648 1.138-1.138 0-1.955-.409-2.452-1.226h-.036v4.549h-1.919v-9.312c0-.923-.024-1.871-.071-2.843h1.688l.107 1.369h.036c.64-1.031 1.611-1.546 2.914-1.546 1.019 0 1.869.402 2.55 1.208.682.806 1.022 1.866 1.022 3.181zm-1.955.07c0-.841-.189-1.534-.569-2.079-.415-.569-.972-.853-1.67-.853-.473 0-.904.158-1.288.471-.385.315-.637.726-.755 1.236-.059.238-.089.432-.089.585v1.44c0 .628.193 1.158.578 1.591s.886.649 1.501.649c.723 0 1.285-.279 1.688-.835.402-.558.604-1.292.604-2.205z"/><path d="m70.129 25.7319c0 1.469-.397 2.63-1.192 3.482-.71.759-1.593 1.138-2.647 1.138-1.138 0-1.955-.409-2.452-1.226h-.036v4.549h-1.919v-9.312c0-.923-.024-1.871-.071-2.843h1.688l.107 1.369h.036c.639-1.031 1.61-1.546 2.914-1.546 1.018 0 1.868.402 2.551 1.208.68.806 1.021 1.866 1.021 3.181zm-1.955.07c0-.841-.19-1.534-.57-2.079-.415-.569-.97-.853-1.67-.853-.474 0-.904.158-1.289.471-.385.315-.636.726-.754 1.236-.059.238-.089.432-.089.585v1.44c0 .628.193 1.158.576 1.591.385.432.886.649 1.503.649.723 0 1.285-.279 1.688-.835.404-.558.605-1.292.605-2.205z"/><path d="m81.235 26.7979c0 1.019-.354 1.848-1.064 2.488-.78.699-1.867 1.049-3.263 1.049-1.2891 0-2.322-.248-3.104-.746l.445-1.599c.842.509 1.767.765 2.774.765.723 0 1.285-.164 1.689-.49.402-.326.603-.763.603-1.309 0-.486-.166-.896-.498-1.228-.33-.332-.882-.641-1.652-.926-2.097-.782-3.145-1.928-3.145-3.434 0-.985.367-1.792 1.102-2.42.733-.629 1.71-.943 2.932-.943 1.09 0 1.995.19 2.718.569l-.48 1.564c-.675-.367-1.438-.551-2.292-.551-.675 0-1.202.167-1.58.498-.319.296-.48.657-.48 1.084 0 .473.183.865.55 1.173.32.284.9.592 1.742.924 1.03.415 1.787.9 2.274 1.456.487.554.729 1.248.729 2.076z"/><path d="m87.5791 22.9599h-2.115v4.193c0 1.066.373 1.599 1.12 1.599.343 0 .627-.03.852-.089l.053 1.457c-.378.141-.876.212-1.492.212-.758 0-1.35-.231-1.777-.693-.426-.463-.64-1.238-.64-2.328v-4.353h-1.26v-1.44h1.26v-1.581l1.885-.569v2.15h2.115z"/><path d="m97.1221 25.7669c0 1.328-.38 2.417-1.138 3.27-.795.877-1.849 1.315-3.164 1.315-1.267 0-2.276-.42-3.028-1.261s-1.129-1.902-1.129-3.181c0-1.338.387-2.434 1.164-3.287.775-.853 1.821-1.28 3.136-1.28 1.267 0 2.287.42 3.056 1.262.736.817 1.103 1.871 1.103 3.162zm-1.991.062c0-.797-.17-1.48-.515-2.049-.402-.689-.977-1.033-1.723-1.033-.771 0-1.357.345-1.76 1.033-.345.571-.515 1.265-.515 2.085 0 .796.17 1.48.515 2.048.415.689.995 1.033 1.742 1.033.733 0 1.308-.351 1.723-1.051.355-.58.533-1.27.533-2.066z"/><path d="m103.359 23.2079c-.19-.035-.392-.053-.605-.053-.675 0-1.197.255-1.564.765-.32.45-.48 1.019-.48 1.705v4.531h-1.918l.018-5.917c0-.995-.024-1.902-.072-2.719h1.671l.07 1.652h.053c.202-.568.522-1.025.959-1.368.427-.309.889-.463 1.387-.463.177 0 .338.013.48.035.001.002.001 1.832.001 1.832z"/><path d="m111.94 25.4299c0 .344-.022.634-.07.87h-5.756c.022.853.301 1.506.835 1.956.485.402 1.112.604 1.883.604.852 0 1.63-.136 2.329-.409l.301 1.332c-.817.356-1.782.534-2.895.534-1.339 0-2.39-.394-3.155-1.182-.763-.788-1.146-1.845-1.146-3.172 0-1.302.355-2.387 1.067-3.252.745-.923 1.752-1.385 3.02-1.385 1.245 0 2.187.462 2.827 1.385.506.734.76 1.641.76 2.719zm-1.829-.498c.013-.569-.113-1.06-.373-1.475-.332-.534-.842-.8-1.529-.8-.627 0-1.138.26-1.527.782-.32.415-.509.913-.568 1.492z"/><path d="m40.3428 13.1807.813-.211c.0615.3135.2255.627.4921.9405.2696.3134.6255.4702 1.0679.4702.4512 0 .8071-.1158 1.0679-.3472.2607-.2314.3911-.5112.3911-.8394 0-.3544-.1377-.6357-.4131-.8437-.2754-.2109-.6504-.3164-1.125-.3164h-.4087v-.7427c.3926 0 .6929-.022.9009-.0659.208-.0469.3911-.1626.5493-.3472.1612-.1875.2417-.3999.2417-.6372 0-.28123-.1098-.52586-.3296-.73386-.2168-.20801-.5112-.31202-.8833-.31202-.3252 0-.6035.08204-.8349.2461-.2285.16113-.3867.37646-.4746.64598-.0879.2666-.1319.4658-.1319.5977l-.8174-.1846c.2022-1.36816.958-2.05225 2.2676-2.05225.6299 0 1.1294.17579 1.4986.52735.3691.34863.5537.75732.5537 1.2261 0 .6006-.2842 1.0664-.8526 1.3974.3282.0909.6021.2769.8218.5581.2227.2784.334.6123.334 1.002 0 .5537-.2153 1.0181-.646 1.3931-.4277.372-.9961.5581-1.7051.5581-1.2187 0-2.0112-.6431-2.3774-1.9292zm8.7363 1.2436c-.293.249-.5757.4248-.8481.5274-.2696.1025-.5596.1538-.8702.1538-.5127 0-.9067-.1245-1.1821-.3736-.2754-.2519-.4131-.5727-.4131-.9624 0-.2285.0513-.4365.1538-.624.1055-.1904.2417-.3428.4087-.457.1699-.1143.3604-.2007.5713-.2593.1553-.041.3897-.0806.7031-.1187.6387-.0761 1.1089-.1669 1.4107-.2724.0029-.1084.0044-.1773.0044-.2066 0-.3222-.0747-.5493-.2241-.6811-.2022-.1787-.5025-.2681-.9009-.2681-.3721 0-.6475.0659-.8262.1978-.1758.1289-.3061.3589-.3911.6899l-.7734-.1054c.0703-.3311.186-.5977.3471-.7999.1612-.205.3941-.3618.6988-.4702.3046-.1113.6577-.167 1.059-.167.3985 0 .7222.0469.9712.1407.2491.0937.4322.2124.5493.3559.1172.1406.1993.3194.2461.5362.0264.1347.0396.3779.0396.7294v1.0547c0 .7354.0161 1.2012.0483 1.3975.0352.1934.1026.3794.2022.5581h-.8262c-.082-.1641-.1348-.356-.1582-.5757zm-.0659-1.7666c-.2871.1172-.7178.2168-1.292.2988-.3252.0469-.5552.0997-.69.1582-.1347.0586-.2387.1451-.312.2593-.0732.1114-.1098.2359-.1098.3736 0 .2109.0791.3867.2373.5273.1611.1406.3955.2109.7031.2109.3047 0 .5757-.0659.813-.1977.2373-.1348.4116-.3179.5229-.5493.085-.1787.1275-.4424.1275-.791zm2.0347-2.3247h1.8237c.4482 0 .7807.0381.9975.1143.2198.0732.4073.2094.5625.4087.1582.1992.2373.4379.2373.7163 0 .2226-.0468.4174-.1406.5844-.0908.1641-.2285.3018-.4131.4131.2198.0733.4014.211.545.4131.1464.1992.2197.4365.2197.7119-.0293.4424-.1875.7705-.4746.9844s-.7046.3208-1.2525.3208h-2.1049zm.791 1.9644h.8437c.3369 0 .5684-.0176.6944-.0528.1259-.0351.2387-.1054.3383-.2109.0996-.1084.1494-.2373.1494-.3867 0-.2461-.0878-.4175-.2636-.5142-.1729-.0967-.4702-.145-.8921-.145h-.8701zm0 2.0522h1.0415c.4482 0 .7558-.0513.9228-.1538.167-.1055.2549-.2856.2637-.5405 0-.1494-.0483-.2871-.145-.4131-.0967-.1289-.2227-.2095-.378-.2417-.1552-.0352-.4043-.0527-.747-.0527h-.958zm6.9257.0747c-.2929.249-.5756.4248-.8481.5274-.2695.1025-.5596.1538-.8701.1538-.5127 0-.9068-.1245-1.1821-.3736-.2754-.2519-.4131-.5727-.4131-.9624 0-.2285.0512-.4365.1538-.624.1054-.1904.2417-.3428.4087-.457.1699-.1143.3603-.2007.5713-.2593.1552-.041.3896-.0806.7031-.1187.6387-.0761 1.1089-.1669 1.4106-.2724.003-.1084.0044-.1773.0044-.2066 0-.3222-.0747-.5493-.2241-.6811-.2021-.1787-.5024-.2681-.9009-.2681-.372 0-.6474.0659-.8261.1978-.1758.1289-.3062.3589-.3912.6899l-.7734-.1054c.0703-.3311.186-.5977.3472-.7999.1611-.205.394-.3618.6987-.4702.3047-.1113.6577-.167 1.0591-.167.3984 0 .7222.0469.9712.1407.249.0937.4321.2124.5493.3559.1172.1406.1992.3194.2461.5362.0264.1347.0395.3779.0395.7294v1.0547c0 .7354.0161 1.2012.0484 1.3975.0351.1934.1025.3794.2021.5581h-.8261c-.0821-.1641-.1348-.356-.1583-.5757zm-.0659-1.7666c-.2871.1172-.7177.2168-1.292.2988-.3252.0469-.5551.0997-.6899.1582-.1348.0586-.2388.1451-.312.2593-.0733.1114-.1099.2359-.1099.3736 0 .2109.0791.3867.2373.5273.1612.1406.3955.2109.7032.2109.3046 0 .5756-.0659.8129-.1977.2373-.1348.4117-.3179.523-.5493.0849-.1787.1274-.4424.1274-.791zm2.0347-2.3247h.791v1.9424h2.1929v-1.9424h.791v4.667h-.791v-2.0698h-2.1929v2.0698h-.791zm4.5439 0h3.7925v.6548h-1.5029v4.0122h-.7866v-4.0122h-1.503zm7.4883 4.0913c-.2929.249-.5757.4248-.8481.5274-.2696.1025-.5596.1538-.8701.1538-.5127 0-.9068-.1245-1.1822-.3736-.2754-.2519-.4131-.5727-.4131-.9624 0-.2285.0513-.4365.1539-.624.1054-.1904.2417-.3428.4086-.457.17-.1143.3604-.2007.5713-.2593.1553-.041.3897-.0806.7032-.1187.6386-.0761 1.1088-.1669 1.4106-.2724.0029-.1084.0044-.1773.0044-.2066 0-.3222-.0747-.5493-.2241-.6811-.2022-.1787-.5025-.2681-.9009-.2681-.3721 0-.6475.0659-.8262.1978-.1758.1289-.3061.3589-.3911.6899l-.7734-.1054c.0703-.3311.186-.5977.3471-.7999.1612-.205.3941-.3618.6988-.4702.3047-.1113.6577-.167 1.0591-.167.3984 0 .7221.0469.9712.1407.249.0937.4321.2124.5493.3559.1172.1406.1992.3194.2461.5362.0263.1347.0395.3779.0395.7294v1.0547c0 .7354.0161 1.2012.0484 1.3975.0351.1934.1025.3794.2021.5581h-.8262c-.082-.1641-.1347-.356-.1582-.5757zm-.0659-1.7666c-.2871.1172-.7178.2168-1.292.2988-.3252.0469-.5552.0997-.6899.1582-.1348.0586-.2388.1451-.312.2593-.0733.1114-.1099.2359-.1099.3736 0 .2109.0791.3867.2373.5273.1611.1406.3955.2109.7031.2109.3047 0 .5757-.0659.813-.1977.2373-.1348.4116-.3179.523-.5493.0849-.1787.1274-.4424.1274-.791zm4.8516-2.3247v2.0171c.2519 0 .4292-.0483.5317-.145s.252-.378.4482-.8438c.1846-.4424.3501-.7251.4966-.8481.1436-.1201.3721-.1802.6856-.1802h.29v.6548l-.2153-.0044c-.211 0-.3457.0308-.4043.0923-.0615.0644-.1553.2563-.2813.5757-.1171.3047-.2255.5156-.3252.6328-.0996.1172-.2548.2241-.4658.3208.3428.0908.6768.4072 1.002.9492l.8701 1.4458h-.8701l-.8482-1.4458c-.1728-.293-.3237-.4849-.4526-.5757s-.2827-.1362-.4614-.1362v2.1577h-.8086v-2.1577c-.1758 0-.3281.0454-.4571.1362-.1289.0879-.2797.2798-.4526.5757l-.8481 1.4458h-.8702l.8658-1.4458c.3281-.542.6635-.8584 1.0063-.9492-.2344-.1084-.3984-.2256-.4922-.3516-.0937-.1289-.2343-.4336-.4218-.914-.0645-.1612-.1333-.2608-.2066-.2989-.0762-.0381-.189-.0571-.3384-.0571-.0381 0-.1157.0015-.2329.0044v-.6548h.1099c.3047 0 .5185.0191.6416.0571.126.0352.2373.1128.334.2329.0996.1172.2285.3633.3867.7383.1933.46.3398.7398.4394.8394.1026.0996.2813.1494.5362.1494v-2.0171zm3.1992 0h.791v3.5596l2.1929-3.5596h.8525v4.667h-.791v-3.5376l-2.1929 3.5376h-.8525zm4.6011 0h3.7924v.6548h-1.5029v4.0122h-.7866v-4.0122h-1.5029zm4.5483 0h.791v3.5596l2.1929-3.5596h.8525v4.667h-.791v-3.5376l-2.1929 3.5376h-.8525zm7.5366 0h1.8238c.4482 0 .7807.0381.9977.1143.22.0732.407.2094.562.4087.159.1992.238.4379.238.7163 0 .2226-.047.4174-.141.5844-.091.1641-.229.3018-.413.4131.22.0733.401.211.545.4131.146.1992.22.4365.22.7119-.03.4424-.188.7705-.475.9844s-.705.3208-1.2525.3208h-2.105zm.791 1.9644h.8438c.3369 0 .5683-.0176.6943-.0528.126-.0351.2384-.1054.3384-.2109.1-.1084.149-.2373.149-.3867 0-.2461-.087-.4175-.2633-.5142-.1728-.0967-.4702-.145-.892-.145h-.8702zm0 2.0522h1.0415c.4483 0 .756-.0513.923-.1538.167-.1055.255-.2856.264-.5405 0-.1494-.049-.2871-.145-.4131-.097-.1289-.223-.2095-.3784-.2417-.1553-.0352-.4043-.0527-.7471-.0527h-.958z"/></g></svg>