<svg height="40" viewBox="0 0 128 40" width="128" xmlns="http://www.w3.org/2000/svg"><rect fill="#221f1f" height="39" rx="3.5" stroke="#4d4b4b" width="127" x=".5" y=".5"/><path d="m11.3916 8.35181c-.262.277-.417.707-.417 1.265v19.90399c0 .558.155.987.417 1.264l11.217-11.217z" fill="#00e3ff"/><path d="m11.4576 8.28687-.066.065c.022-.023.053-.033.076-.055z" fill="#00e3ff"/><path d="m11.4586 30.8499.01-.01c-.024-.021-.055-.031-.077-.055z" fill="#00e3ff"/><path d="m30.8136 18.2698-4.404-2.502h-.001l-3.8 3.8 3.8 3.802-.085.049.085-.048 4.404-2.502c1.259-.715 1.259-1.884.001-2.599z" fill="#ffe000"/><path d="m22.6086 19.5679-11.217 11.217c.022.024.053.034.077.055.42.376 1.063.415 1.793 0l13.063-7.421.085-.049z" fill="#ff3a44"/><path d="m22.6086 19.5688 3.8-3.801.001-.001-13.148-7.46999c-.73-.415-1.375-.376-1.794 0-.023.022-.054.03199-.076.05499z" fill="#00f076"/><g fill="#fff"><path d="m56.0029 22.233c-2.117 0-3.842 1.609-3.842 3.828 0 2.204 1.725 3.828 3.842 3.828s3.842-1.624 3.842-3.828c0-2.218-1.725-3.828-3.842-3.828zm0 6.148c-1.16 0-2.16-.957-2.16-2.32 0-1.377 1-2.32 2.16-2.32s2.16.942 2.16 2.32c.001 1.363-1 2.32-2.16 2.32z"/><path d="m64.385 22.233c-2.117 0-3.842 1.609-3.842 3.828 0 2.204 1.725 3.828 3.842 3.828s3.842-1.624 3.842-3.828c.001-2.218-1.725-3.828-3.842-3.828zm0 6.148c-1.16 0-2.16-.957-2.16-2.32 0-1.377 1.001-2.32 2.16-2.32s2.16.942 2.16 2.32c.001 1.363-1 2.32-2.16 2.32z"/><path d="m100.985 18.406h-1.6791v11.251h1.6791z"/><path d="m46.032 23.409v1.623h3.886c-.116.913-.42 1.58-.885 2.044-.565.565-1.45 1.189-3.001 1.189-2.392 0-4.263-1.928-4.263-4.321s1.87-4.321 4.263-4.321c1.291 0 2.233.508 2.929 1.16l1.145-1.145c-.971-.928-2.262-1.638-4.074-1.638-3.277 0-6.032 2.668-6.032 5.945s2.755 5.945 6.032 5.945c1.769 0 3.103-.58 4.147-1.667 1.073-1.073 1.407-2.581 1.407-3.799 0-.377-.029-.725-.087-1.015z"/><path d="m105.11 22.213c-1.216 0-2.475.536-2.996 1.723l1.491.622c.318-.622.912-.825 1.534-.825.868 0 1.751.521 1.766 1.447v.116c-.304-.174-.955-.434-1.751-.434-1.607 0-3.242.883-3.242 2.533 0 1.505 1.317 2.475 2.794 2.475 1.129 0 1.751-.507 2.142-1.1h.058v.868h1.621v-4.314c-.001-1.997-1.492-3.111-3.417-3.111zm-.203 6.166c-.55 0-1.317-.275-1.317-.955 0-.868.955-1.201 1.78-1.201.738 0 1.086.159 1.534.376-.129 1.042-1.027 1.78-1.997 1.78z"/><path d="m112.507 27.337h-.058l-1.997-4.878h-1.809l2.996 6.818-1.708 3.792h1.751l4.618-10.61h-1.868z"/><path d="m74.6751 23.089h-.059c-.377-.449-1.102-.855-2.015-.855-1.914 0-3.668 1.682-3.668 3.842 0 2.146 1.754 3.813 3.668 3.813.913 0 1.638-.406 2.015-.87h.058v.551c0 1.464-.783 2.247-2.044 2.247-1.029 0-1.667-.739-1.928-1.363l-1.464.609c.42 1.015 1.537 2.262 3.393 2.262 1.972 0 3.639-1.16 3.639-3.987v-6.873h-1.595zm-1.93 5.292c-1.16 0-2.131-.971-2.131-2.305 0-1.348.972-2.334 2.131-2.334 1.145 0 2.044.986 2.044 2.334.001 1.334-.898 2.305-2.044 2.305z"/><path d="m94.6881 18.406h-4.024v11.251h1.679v-4.263h2.345c1.862 0 3.691-1.348 3.691-3.494s-1.829-3.494-3.691-3.494zm.044 5.422h-2.389v-3.857h2.388c1.256 0 1.969 1.04 1.969 1.928 0 .873-.713 1.929-1.968 1.929z"/><path d="m79.111 18.406h-1.682v11.251h1.682z"/><path d="m86.8101 24.669c-.319-.855-1.29-2.436-3.277-2.436-1.972 0-3.61 1.551-3.61 3.828 0 2.146 1.624 3.828 3.799 3.828 1.754 0 2.769-1.073 3.19-1.696l-1.305-.87c-.435.638-1.029 1.058-1.885 1.058s-1.464-.392-1.856-1.16l5.118-2.117zm-5.22 1.276c-.044-1.479 1.145-2.233 2.001-2.233.667 0 1.233.333 1.421.812z"/><path d="m40.3428 13.1807.813-.211c.0615.3135.2255.627.4921.9405.2696.3134.6255.4702 1.0679.4702.4512 0 .8071-.1158 1.0679-.3472.2607-.2314.3911-.5112.3911-.8394 0-.3544-.1377-.6357-.4131-.8437-.2754-.2109-.6504-.3164-1.125-.3164h-.4087v-.7427c.3926 0 .6929-.022.9009-.0659.208-.0469.3911-.1626.5493-.3472.1612-.1875.2417-.3999.2417-.6372 0-.28123-.1098-.52586-.3296-.73386-.2168-.20801-.5112-.31202-.8833-.31202-.3252 0-.6035.08204-.8349.2461-.2285.16113-.3867.37646-.4746.64598-.0879.2666-.1319.4658-.1319.5977l-.8174-.1846c.2022-1.36816.958-2.05225 2.2676-2.05225.6299 0 1.1294.17579 1.4986.52735.3691.34863.5537.75732.5537 1.2261 0 .6006-.2842 1.0664-.8526 1.3974.3282.0909.6021.2769.8218.5581.2227.2784.334.6123.334 1.002 0 .5537-.2153 1.0181-.646 1.3931-.4277.372-.9961.5581-1.7051.5581-1.2187 0-2.0112-.6431-2.3774-1.9292zm8.7363 1.2436c-.293.249-.5757.4248-.8481.5274-.2696.1025-.5596.1538-.8702.1538-.5127 0-.9067-.1245-1.1821-.3736-.2754-.2519-.4131-.5727-.4131-.9624 0-.2285.0513-.4365.1538-.624.1055-.1904.2417-.3428.4087-.457.1699-.1143.3604-.2007.5713-.2593.1553-.041.3897-.0806.7031-.1187.6387-.0761 1.1089-.1669 1.4107-.2724.0029-.1084.0044-.1773.0044-.2066 0-.3222-.0747-.5493-.2241-.6811-.2022-.1787-.5025-.2681-.9009-.2681-.3721 0-.6475.0659-.8262.1978-.1758.1289-.3061.3589-.3911.6899l-.7734-.1054c.0703-.3311.186-.5977.3471-.7999.1612-.205.3941-.3618.6988-.4702.3046-.1113.6577-.167 1.059-.167.3985 0 .7222.0469.9712.1407.2491.0937.4322.2124.5493.3559.1172.1406.1993.3194.2461.5362.0264.1347.0396.3779.0396.7294v1.0547c0 .7354.0161 1.2012.0483 1.3975.0352.1934.1026.3794.2022.5581h-.8262c-.082-.1641-.1348-.356-.1582-.5757zm-.0659-1.7666c-.2871.1172-.7178.2168-1.292.2988-.3252.0469-.5552.0997-.69.1582-.1347.0586-.2387.1451-.312.2593-.0732.1114-.1098.2359-.1098.3736 0 .2109.0791.3867.2373.5273.1611.1406.3955.2109.7031.2109.3047 0 .5757-.0659.813-.1977.2373-.1348.4116-.3179.5229-.5493.085-.1787.1275-.4424.1275-.791zm2.0347-2.3247h1.8237c.4482 0 .7807.0381.9975.1143.2198.0732.4073.2094.5625.4087.1582.1992.2373.4379.2373.7163 0 .2226-.0468.4174-.1406.5844-.0908.1641-.2285.3018-.4131.4131.2198.0733.4014.211.545.4131.1464.1992.2197.4365.2197.7119-.0293.4424-.1875.7705-.4746.9844s-.7046.3208-1.2525.3208h-2.1049zm.791 1.9644h.8437c.3369 0 .5684-.0176.6944-.0528.1259-.0351.2387-.1054.3383-.2109.0996-.1084.1494-.2373.1494-.3867 0-.2461-.0878-.4175-.2636-.5142-.1729-.0967-.4702-.145-.8921-.145h-.8701zm0 2.0522h1.0415c.4482 0 .7558-.0513.9228-.1538.167-.1055.2549-.2856.2637-.5405 0-.1494-.0483-.2871-.145-.4131-.0967-.1289-.2227-.2095-.378-.2417-.1552-.0352-.4043-.0527-.747-.0527h-.958zm6.9257.0747c-.2929.249-.5756.4248-.8481.5274-.2695.1025-.5596.1538-.8701.1538-.5127 0-.9068-.1245-1.1821-.3736-.2754-.2519-.4131-.5727-.4131-.9624 0-.2285.0512-.4365.1538-.624.1054-.1904.2417-.3428.4087-.457.1699-.1143.3603-.2007.5713-.2593.1552-.041.3896-.0806.7031-.1187.6387-.0761 1.1089-.1669 1.4106-.2724.003-.1084.0044-.1773.0044-.2066 0-.3222-.0747-.5493-.2241-.6811-.2021-.1787-.5024-.2681-.9009-.2681-.372 0-.6474.0659-.8261.1978-.1758.1289-.3062.3589-.3912.6899l-.7734-.1054c.0703-.3311.186-.5977.3472-.7999.1611-.205.394-.3618.6987-.4702.3047-.1113.6577-.167 1.0591-.167.3984 0 .7222.0469.9712.1407.249.0937.4321.2124.5493.3559.1172.1406.1992.3194.2461.5362.0264.1347.0395.3779.0395.7294v1.0547c0 .7354.0161 1.2012.0484 1.3975.0351.1934.1025.3794.2021.5581h-.8261c-.0821-.1641-.1348-.356-.1583-.5757zm-.0659-1.7666c-.2871.1172-.7177.2168-1.292.2988-.3252.0469-.5551.0997-.6899.1582-.1348.0586-.2388.1451-.312.2593-.0733.1114-.1099.2359-.1099.3736 0 .2109.0791.3867.2373.5273.1612.1406.3955.2109.7032.2109.3046 0 .5756-.0659.8129-.1977.2373-.1348.4117-.3179.523-.5493.0849-.1787.1274-.4424.1274-.791zm2.0347-2.3247h.791v1.9424h2.1929v-1.9424h.791v4.667h-.791v-2.0698h-2.1929v2.0698h-.791zm4.5439 0h3.7925v.6548h-1.5029v4.0122h-.7866v-4.0122h-1.503zm7.4883 4.0913c-.2929.249-.5757.4248-.8481.5274-.2696.1025-.5596.1538-.8701.1538-.5127 0-.9068-.1245-1.1822-.3736-.2754-.2519-.4131-.5727-.4131-.9624 0-.2285.0513-.4365.1539-.624.1054-.1904.2417-.3428.4086-.457.17-.1143.3604-.2007.5713-.2593.1553-.041.3897-.0806.7032-.1187.6386-.0761 1.1088-.1669 1.4106-.2724.0029-.1084.0044-.1773.0044-.2066 0-.3222-.0747-.5493-.2241-.6811-.2022-.1787-.5025-.2681-.9009-.2681-.3721 0-.6475.0659-.8262.1978-.1758.1289-.3061.3589-.3911.6899l-.7734-.1054c.0703-.3311.186-.5977.3471-.7999.1612-.205.3941-.3618.6988-.4702.3047-.1113.6577-.167 1.0591-.167.3984 0 .7221.0469.9712.1407.249.0937.4321.2124.5493.3559.1172.1406.1992.3194.2461.5362.0263.1347.0395.3779.0395.7294v1.0547c0 .7354.0161 1.2012.0484 1.3975.0351.1934.1025.3794.2021.5581h-.8262c-.082-.1641-.1347-.356-.1582-.5757zm-.0659-1.7666c-.2871.1172-.7178.2168-1.292.2988-.3252.0469-.5552.0997-.6899.1582-.1348.0586-.2388.1451-.312.2593-.0733.1114-.1099.2359-.1099.3736 0 .2109.0791.3867.2373.5273.1611.1406.3955.2109.7031.2109.3047 0 .5757-.0659.813-.1977.2373-.1348.4116-.3179.523-.5493.0849-.1787.1274-.4424.1274-.791zm4.8516-2.3247v2.0171c.2519 0 .4292-.0483.5317-.145s.252-.378.4482-.8438c.1846-.4424.3501-.7251.4966-.8481.1436-.1201.3721-.1802.6856-.1802h.29v.6548l-.2153-.0044c-.211 0-.3457.0308-.4043.0923-.0615.0644-.1553.2563-.2813.5757-.1171.3047-.2255.5156-.3252.6328-.0996.1172-.2548.2241-.4658.3208.3428.0908.6768.4072 1.002.9492l.8701 1.4458h-.8701l-.8482-1.4458c-.1728-.293-.3237-.4849-.4526-.5757s-.2827-.1362-.4614-.1362v2.1577h-.8086v-2.1577c-.1758 0-.3281.0454-.4571.1362-.1289.0879-.2797.2798-.4526.5757l-.8481 1.4458h-.8702l.8658-1.4458c.3281-.542.6635-.8584 1.0063-.9492-.2344-.1084-.3984-.2256-.4922-.3516-.0937-.1289-.2343-.4336-.4218-.914-.0645-.1612-.1333-.2608-.2066-.2989-.0762-.0381-.189-.0571-.3384-.0571-.0381 0-.1157.0015-.2329.0044v-.6548h.1099c.3047 0 .5185.0191.6416.0571.126.0352.2373.1128.334.2329.0996.1172.2285.3633.3867.7383.1933.46.3398.7398.4394.8394.1026.0996.2813.1494.5362.1494v-2.0171zm3.1992 0h.791v3.5596l2.1929-3.5596h.8525v4.667h-.791v-3.5376l-2.1929 3.5376h-.8525zm4.6011 0h3.7924v.6548h-1.5029v4.0122h-.7866v-4.0122h-1.5029zm4.5483 0h.791v3.5596l2.1929-3.5596h.8525v4.667h-.791v-3.5376l-2.1929 3.5376h-.8525zm7.5366 0h1.8238c.4482 0 .7807.0381.9977.1143.22.0732.407.2094.562.4087.159.1992.238.4379.238.7163 0 .2226-.047.4174-.141.5844-.091.1641-.229.3018-.413.4131.22.0733.401.211.545.4131.146.1992.22.4365.22.7119-.03.4424-.188.7705-.475.9844s-.705.3208-1.2525.3208h-2.105zm.791 1.9644h.8438c.3369 0 .5683-.0176.6943-.0528.126-.0351.2384-.1054.3384-.2109.1-.1084.149-.2373.149-.3867 0-.2461-.087-.4175-.2633-.5142-.1728-.0967-.4702-.145-.892-.145h-.8702zm0 2.0522h1.0415c.4483 0 .756-.0513.923-.1538.167-.1055.255-.2856.264-.5405 0-.1494-.049-.2871-.145-.4131-.097-.1289-.223-.2095-.3784-.2417-.1553-.0352-.4043-.0527-.7471-.0527h-.958z"/></g></svg>