<?xml version="1.0" encoding="iso-8859-1"?>
<!-- Generator: Adobe Illustrator 16.0.0, SVG Export Plug-In . SVG Version: 6.00 Build 0)  -->
<!DOCTYPE svg PUBLIC "-//W3C//DTD SVG 1.1//EN" "http://www.w3.org/Graphics/SVG/1.1/DTD/svg11.dtd">
<svg version="1.1" id="Capa_1" xmlns="http://www.w3.org/2000/svg" xmlns:xlink="http://www.w3.org/1999/xlink" x="0px" y="0px"
	 width="336.431px" height="336.431px" viewBox="0 0 336.431 336.431" style="enable-background:new 0 0 336.431 336.431;"
	 xml:space="preserve">
<g>
	<g>
		<g>
			<path d="M33.48,1.003C15.015,1.003,0,16.018,0,34.494c0,18.459,15.015,33.483,33.48,33.483c18.458,0,33.483-15.018,33.483-33.483
				C66.963,16.023,51.944,1.003,33.48,1.003z"/>
		</g>
		<g>
			<path d="M33.48,133.405C15.015,133.405,0,148.423,0,166.888c0,18.45,15.015,33.456,33.48,33.456
				c18.458,0,33.483-15.006,33.483-33.456C66.963,148.43,51.944,133.405,33.48,133.405z"/>
		</g>
		<g>
			<path d="M33.48,268.468C15.015,268.468,0,283.48,0,301.951c0,18.458,15.015,33.477,33.48,33.477
				c18.458,0,33.483-15.019,33.483-33.477C66.963,283.48,51.944,268.468,33.48,268.468z"/>
		</g>
		<g>
			<g>
				<rect x="123.606" y="28.874" width="201.878" height="11.223"/>
			</g>
			<g>
				<rect x="112.647" y="17.924" width="223.784" height="33.129"/>
			</g>
		</g>
		<g>
			<g>
				<rect x="123.606" y="166.567" width="201.878" height="11.235"/>
			</g>
			<g>
				<rect x="112.647" y="155.629" width="223.784" height="33.12"/>
			</g>
		</g>
		<g>
			<g>
				<rect x="123.606" y="294.379" width="201.878" height="11.211"/>
			</g>
			<g>
				<rect x="112.647" y="283.42" width="223.784" height="33.123"/>
			</g>
		</g>
	</g>
</g>
<g>
</g>
<g>
</g>
<g>
</g>
<g>
</g>
<g>
</g>
<g>
</g>
<g>
</g>
<g>
</g>
<g>
</g>
<g>
</g>
<g>
</g>
<g>
</g>
<g>
</g>
<g>
</g>
<g>
</g>
</svg>
