<svg fill="none" height="24" viewBox="0 0 147 24" width="147" xmlns="http://www.w3.org/2000/svg"><path d="m25.1281 12.0529c-.0277 6.6284-5.687 11.9735-12.6193 11.947-6.93238-.0265-12.536372-5.4244-12.50869794-12.0528.02767404-6.62841 5.68700794-11.9734628 12.61939794-11.94700218 6.9461.02646068 12.5363 5.42443218 12.5086 12.05280218z" fill="#221f1f"/><path d="m17.0891 17.9405c-1.3283 2.2756-2.9749 4.1411-4.8152 4.1014-1.1485-.0265-2.2416-.4366-3.2379-1.0849.31825-.5557 2.3246-3.334 8.0531-3.0165zm7.7072-5.8875c-.0276 6.4432-5.5348 11.6559-12.2872 11.6162-6.75247-.0264-12.17658-5.2789-12.17658-11.7221 0-4.18074 2.18625-7.18402 4.2618-8.79812 2.54601-1.97132 4.27563-.46306 4.88446.68798-.06919-.48952-.27674-1.89194-.84406-2.897444 1.24533-.41014 2.58748-.635055 3.98508-.621825 6.7524.039691 12.2042 5.278899 12.1765 11.735309zm-12.8822-6.72102c1.7711-1.15103 4.8291-1.78609 6.448.62183-.9824-5.503815-5.2304-2.34177-6.448-.62183zm-2.46299 5.19952c.3736-.3969.80259-.79382 1.30069-1.15104 2.2139-1.62733 4.6354-2.03747 5.4241-.89966.3044.4366.3182 1.0452.083 1.7067.7887-1.24364 1.0378-2.39468.5535-3.02973-.8164-1.05843-3.3486-.33076-5.6593 1.62733-.6781.54244-1.24537 1.15104-1.70199 1.7464zm-3.86053.979c1.1208.1985 2.33846-1.1642 2.71205-3.06939.3736-1.90517-.22139-3.59865-1.34219-3.81033-1.12079-.19846-2.33845 1.16427-2.71205 3.06943-.3736 1.89194.22139 3.59869 1.34219 3.81029zm15.58052-2.30203c-10.7237 6.86653-18.12653 3.38693-18.12653 3.38693-.11069 2.3815 4.16494 9.6979 9.25693 9.7905 5.1059.0926 8.8696-13.17743 8.8696-13.17743zm-16.61829-1.46857c.34592-1.7464 1.39753-3.01651 2.35229-2.83129.95475.172 1.45288 1.73318 1.12079 3.47958-.34592 1.74641-1.39753 3.01651-2.35229 2.83131-.96859-.172-1.46672-1.73319-1.12079-3.4796zm2.03404 1.4818c.42894.09261.8994-.41014 1.06544-1.11135.16605-.70121-.05534-1.34949-.48429-1.42887-.29058-.06615-.59499.14553-.81638.50275.19371.09261.29057.33076.19371.52921-.08302.18523-.27674.27784-.47045.23815-.08303.62182.12453 1.1775.51197 1.27011z" fill="#05bc52"/><g fill="#221f1f"><path d="m141.282 6.04639h-5.461l-5.731 12.02641h4.569l.987-2.355h5.785l.987 2.355h4.582zm-4.623 7.26341 1.893-4.49828 1.879 4.49828z"/><path d="m99.3789 9.12905h5.0961v8.94375h4.19v-8.94375h5.096v-3.08266h-14.3821z"/><path d="m89.6059 13.2569h7.2046v-2.4079h-7.2046v-1.77287h8.4347v-3.02974h-12.4764v12.02641h12.7738v-2.9769h-8.7321z"/><path d="m83.7799 8.1897v-2.14331h-13.5713v3.08266h7.2993l-7.4074 6.81365v2.1301h13.72v-3.0959h-7.3669z"/><path d="m60.6925 5.75537c-5.3528 0-8.7051 2.02424-8.7051 6.31083 0 4.2867 3.3388 6.3241 8.7051 6.3241 5.3799 0 8.7186-2.0507 8.7186-6.3241 0-4.27336-3.3387-6.31083-8.7186-6.31083zm0 9.47293c-2.6764 0-4.312-.8997-4.312-3.1753 0-2.28884 1.6356-3.16204 4.312-3.16204 2.6629 0 4.3255.8732 4.3255 3.16204 0 2.2888-1.6626 3.1753-4.3255 3.1753z"/><path d="m50.7438 10.3992c0-2.54026-1.6627-4.35281-5.6232-4.35281h-8.5699v12.02641h4.1362v-3.4002h2.6629l2.9738 3.4002h5.1636l-3.4604-3.903c1.7302-.7409 2.717-2.3021 2.717-3.7706zm-10.0569-1.52152h4.0687c1.2571 0 1.7573.66151 1.7573 1.50822 0 .5689-.3515 1.6141-1.8249 1.6141h-4.0011z"/><path d="m124.467 6.04639-5.083 4.39251v-4.39251h-4.136v12.02641h4.136v-3.3209l1.555-1.2965 3.541 4.6174h5.164l-5.704-7.118 5.907-4.90841z"/></g></svg>